<?xml version="1.0" standalone="no"?>
<!DOCTYPE svg PUBLIC "-//W3C//DTD SVG 20010904//EN"
 "http://www.w3.org/TR/2001/REC-SVG-20010904/DTD/svg10.dtd">
<svg version="1.0" xmlns="http://www.w3.org/2000/svg"
 width="240.000000pt" height="240.000000pt" viewBox="0 0 240.000000 240.000000"
 preserveAspectRatio="xMidYMid meet">
<metadata>
Created by potrace 1.11, written by Peter Selinger 2001-2013
</metadata>
<g transform="translate(0.000000,240.000000) scale(0.100000,-0.100000)"
fill="#000000" stroke="none">
<path d="M423 2189 c-71 -35 -123 -112 -123 -182 0 -29 -17 -49 -150 -182
l-150 -148 0 -66 c1 -144 99 -264 240 -292 l57 -11 6 -59 c6 -71 51 -171 100
-226 32 -35 37 -49 46 -117 18 -148 93 -250 227 -312 l74 -35 0 -184 0 -185
225 0 225 0 0 158 0 158 28 26 c19 17 48 28 97 37 83 15 177 62 214 108 26 33
27 33 112 33 83 0 86 -1 117 -33 l32 -33 0 -227 0 -227 225 0 225 0 0 323 0
323 30 29 c75 72 108 170 117 350 7 152 -7 248 -51 340 -58 122 -154 210 -282
257 -52 19 -85 22 -270 26 l-211 4 -37 48 c-46 60 -88 92 -174 133 -64 31 -73
32 -214 35 l-147 4 -36 43 c-21 27 -59 56 -97 74 l-61 31 -176 0 c-159 0 -180
-2 -218 -21z m423 -170 c20 -20 39 -51 43 -70 l7 -34 194 -5 c189 -5 196 -6
240 -32 62 -36 116 -92 137 -143 l18 -44 250 -3 c250 -3 250 -3 310 -31 76
-36 147 -110 177 -185 20 -51 22 -75 23 -217 0 -156 -1 -162 -28 -217 -28 -57
-93 -124 -152 -157 -25 -13 -72 -16 -308 -19 l-277 -3 -15 -29 c-22 -43 -91
-97 -140 -109 -58 -15 -502 -15 -560 0 -53 13 -119 67 -145 120 -15 29 -20 58
-20 119 l0 80 -58 58 c-75 73 -95 126 -96 266 l-1 101 110 6 c61 3 122 11 136
18 21 10 31 11 49 1 59 -32 119 -30 165 4 19 14 18 17 -37 73 l-56 58 -4 71
c-3 59 -9 79 -33 113 -44 64 -99 92 -196 98 -100 7 -129 26 -129 83 0 65 18
71 202 68 l158 -3 36 -36z"/>
</g>
</svg>
